# xmcd
#
# Track frame offsets:
#	150
#	17314
#	29252
#	41642
#	54159
#	63336
#	85743
#	99075
#	109719
#	122518
#	133197
#	143858
#	151959
#	164412
#
# Disc length: 2361 seconds
#
# Revision: 0
# Processed by: cddbd v1.5.2PL0 Copyright (c) Steve Scherf et al.
# Submitted via: EasyCDDAExtractor 2010.6.0.0
#
DISCID=a609370e
DTITLE=Sandy's Fancy - Hollow Rock String Band Legacy [CD2]
DYEAR=1900
DGENRE=
TTITLE0=Johnny Lover's Gone
TTITLE1=Shoes And Stockings
TTITLE2=Sally Ann Johnson
TTITLE3=Ducks in the Pond
TTITLE4=Schottische
TTITLE5=Liza Jane/Liza Jane
TTITLE6=Shortening Bread/Ebenezer
TTITLE7=Paddy on the turnpike
TTITLE8=Fire on the Mountain/Greenfield Cotillion
TTITLE9=Shooting Creek
TTITLE10=Little Brown Hand
TTITLE11=Indian Nation
TTITLE12=Peekaboo Waltz
TTITLE13=Ragged Bill
EXTD=
EXTT0=
EXTT1=
EXTT2=
EXTT3=
EXTT4=
EXTT5=
EXTT6=
EXTT7=
EXTT8=
EXTT9=
EXTT10=
EXTT11=
EXTT12=
EXTT13=
PLAYORDER=
